<svg width="74" height="14" viewBox="0 0 74 14" fill="none" xmlns="http://www.w3.org/2000/svg">
<path d="M2 2H2.29511C3.49305 2 4.62794 2.53691 5.3877 3.4631L11.2353 10.5916C12.7335 12.418 15.48 12.555 17.1526 10.8868L23.1 4.95477C24.7142 3.34485 27.3453 3.40747 28.8811 5.09235L34.1814 10.9076C35.7172 12.5925 38.3483 12.6552 39.9625 11.0452L46.0688 4.95477C47.6829 3.34485 50.3141 3.40747 51.8498 5.09235L56.8532 10.5818C58.496 12.3841 61.3554 12.3096 62.9021 10.4242L68.6123 3.4631C69.3721 2.53691 70.5069 2 71.7049 2H72" stroke="#F97316" stroke-width="3" stroke-linecap="round"/>
</svg>
